<svg xmlns="http://www.w3.org/2000/svg" xmlns:xlink="http://www.w3.org/1999/xlink" width="180" zoomAndPan="magnify" viewBox="0 0 135 30.000001" height="40" preserveAspectRatio="xMidYMid meet" version="1.0"><defs><g/><clipPath id="289252b0aa"><path d="M 68 2 L 89 2 L 89 29 L 68 29 Z M 68 2 " clip-rule="nonzero"/></clipPath><clipPath id="6ed5fe6930"><path d="M 72.203125 -0.480469 L 95.097656 6.554688 L 88.0625 29.449219 L 65.167969 22.414062 Z M 72.203125 -0.480469 " clip-rule="nonzero"/></clipPath><clipPath id="f2d9cbba1e"><path d="M 72.203125 -0.480469 L 95.097656 6.554688 L 88.0625 29.449219 L 65.167969 22.414062 Z M 72.203125 -0.480469 " clip-rule="nonzero"/></clipPath><clipPath id="39f31f08f4"><path d="M 72.203125 -0.480469 L 95.097656 6.554688 L 88.0625 29.449219 L 65.167969 22.414062 Z M 72.203125 -0.480469 " clip-rule="nonzero"/></clipPath><clipPath id="fcc97c754c"><path d="M 73.886719 5.796875 L 82.59375 5.796875 L 82.59375 17.410156 L 73.886719 17.410156 Z M 73.886719 5.796875 " clip-rule="nonzero"/></clipPath><clipPath id="92bf649377"><path d="M 73.886719 5.796875 L 81 5.796875 L 81 15 L 73.886719 15 Z M 73.886719 5.796875 " clip-rule="nonzero"/></clipPath></defs><g fill="#d9d9d9" fill-opacity="0.4"><g transform="translate(3.152079, 25.309083)"><g><path d="M 18.640625 -19.1875 L 12.359375 0 L 6.265625 0 L 0 -19.1875 L 5.828125 -19.1875 L 8.4375 -9.46875 C 8.53125 -9.09375 8.640625 -8.617188 8.765625 -8.046875 C 8.898438 -7.472656 9.019531 -6.898438 9.125 -6.328125 C 9.238281 -5.765625 9.304688 -5.304688 9.328125 -4.953125 C 9.359375 -5.304688 9.421875 -5.765625 9.515625 -6.328125 C 9.617188 -6.890625 9.726562 -7.453125 9.84375 -8.015625 C 9.96875 -8.578125 10.082031 -9.039062 10.1875 -9.40625 L 12.84375 -19.1875 Z M 18.640625 -19.1875 "/></g></g></g><g fill="#d9d9d9" fill-opacity="0.4"><g transform="translate(21.79312, 25.309083)"><g><path d="M 6.921875 -14.875 L 6.921875 0 L 1.796875 0 L 1.796875 -14.875 Z M 4.390625 -20.859375 C 5.117188 -20.859375 5.753906 -20.703125 6.296875 -20.390625 C 6.847656 -20.085938 7.125 -19.476562 7.125 -18.5625 C 7.125 -17.6875 6.847656 -17.09375 6.296875 -16.78125 C 5.753906 -16.46875 5.117188 -16.3125 4.390625 -16.3125 C 3.628906 -16.3125 2.984375 -16.46875 2.453125 -16.78125 C 1.929688 -17.09375 1.671875 -17.6875 1.671875 -18.5625 C 1.671875 -19.476562 1.929688 -20.085938 2.453125 -20.390625 C 2.984375 -20.703125 3.628906 -20.859375 4.390625 -20.859375 Z M 4.390625 -20.859375 "/></g></g></g><g fill="#d9d9d9" fill-opacity="0.4"><g transform="translate(30.529876, 25.309083)"><g><path d="M 10.75 -15.125 C 11.03125 -15.125 11.320312 -15.101562 11.625 -15.0625 C 11.925781 -15.03125 12.15625 -15 12.3125 -14.96875 L 11.84375 -10.125 C 11.675781 -10.175781 11.460938 -10.210938 11.203125 -10.234375 C 10.941406 -10.265625 10.578125 -10.28125 10.109375 -10.28125 C 9.785156 -10.28125 9.4375 -10.25 9.0625 -10.1875 C 8.695312 -10.132812 8.347656 -10.007812 8.015625 -9.8125 C 7.691406 -9.613281 7.425781 -9.3125 7.21875 -8.90625 C 7.007812 -8.507812 6.90625 -7.976562 6.90625 -7.3125 L 6.90625 0 L 1.765625 0 L 1.765625 -14.875 L 5.59375 -14.875 L 6.390625 -12.5 L 6.640625 -12.5 C 6.910156 -12.988281 7.253906 -13.429688 7.671875 -13.828125 C 8.097656 -14.222656 8.578125 -14.535156 9.109375 -14.765625 C 9.640625 -15.003906 10.1875 -15.125 10.75 -15.125 Z M 10.75 -15.125 "/></g></g></g><g fill="#d9d9d9" fill-opacity="0.4"><g transform="translate(43.136521, 25.309083)"><g><path d="M 9.03125 -15.125 C 10.90625 -15.125 12.375 -14.65625 13.4375 -13.71875 C 14.5 -12.789062 15.03125 -11.46875 15.03125 -9.75 L 15.03125 0 L 11.46875 0 L 10.484375 -1.96875 L 10.375 -1.96875 C 9.957031 -1.445312 9.523438 -1.019531 9.078125 -0.6875 C 8.640625 -0.363281 8.132812 -0.125 7.5625 0.03125 C 7 0.1875 6.304688 0.265625 5.484375 0.265625 C 4.628906 0.265625 3.859375 0.09375 3.171875 -0.25 C 2.492188 -0.601562 1.957031 -1.132812 1.5625 -1.84375 C 1.164062 -2.550781 0.96875 -3.453125 0.96875 -4.546875 C 0.96875 -6.128906 1.519531 -7.304688 2.625 -8.078125 C 3.726562 -8.847656 5.328125 -9.28125 7.421875 -9.375 L 9.890625 -9.46875 L 9.890625 -9.671875 C 9.890625 -10.335938 9.722656 -10.8125 9.390625 -11.09375 C 9.066406 -11.375 8.628906 -11.515625 8.078125 -11.515625 C 7.492188 -11.515625 6.84375 -11.410156 6.125 -11.203125 C 5.40625 -10.992188 4.679688 -10.726562 3.953125 -10.40625 L 2.46875 -13.796875 C 3.320312 -14.234375 4.289062 -14.5625 5.375 -14.78125 C 6.457031 -15.007812 7.675781 -15.125 9.03125 -15.125 Z M 9.921875 -6.640625 L 8.734375 -6.59375 C 7.796875 -6.550781 7.132812 -6.382812 6.75 -6.09375 C 6.375 -5.800781 6.1875 -5.382812 6.1875 -4.84375 C 6.1875 -4.332031 6.320312 -3.957031 6.59375 -3.71875 C 6.863281 -3.476562 7.21875 -3.359375 7.65625 -3.359375 C 8.28125 -3.359375 8.8125 -3.554688 9.25 -3.953125 C 9.695312 -4.347656 9.921875 -4.859375 9.921875 -5.484375 Z M 9.921875 -6.640625 "/></g></g></g><g fill="#d9d9d9" fill-opacity="0.4"><g transform="translate(59.87541, 25.309083)"><g><path d="M 6.90625 0 L 1.765625 0 L 1.765625 -20.421875 L 6.90625 -20.421875 Z M 6.90625 0 "/></g></g></g><g fill="#cf1020" fill-opacity="1"><g transform="translate(3.152079, 25.040324)"><g><path d="M 18.640625 -19.1875 L 12.359375 0 L 6.265625 0 L 0 -19.1875 L 5.828125 -19.1875 L 8.4375 -9.46875 C 8.53125 -9.09375 8.640625 -8.617188 8.765625 -8.046875 C 8.898438 -7.472656 9.019531 -6.898438 9.125 -6.328125 C 9.238281 -5.765625 9.304688 -5.304688 9.328125 -4.953125 C 9.359375 -5.304688 9.421875 -5.765625 9.515625 -6.328125 C 9.617188 -6.890625 9.726562 -7.453125 9.84375 -8.015625 C 9.96875 -8.578125 10.082031 -9.039062 10.1875 -9.40625 L 12.84375 -19.1875 Z M 18.640625 -19.1875 "/></g></g></g><g fill="#cf1020" fill-opacity="1"><g transform="translate(21.79312, 25.040324)"><g><path d="M 6.921875 -14.875 L 6.921875 0 L 1.796875 0 L 1.796875 -14.875 Z M 4.390625 -20.859375 C 5.117188 -20.859375 5.753906 -20.703125 6.296875 -20.390625 C 6.847656 -20.085938 7.125 -19.476562 7.125 -18.5625 C 7.125 -17.6875 6.847656 -17.09375 6.296875 -16.78125 C 5.753906 -16.46875 5.117188 -16.3125 4.390625 -16.3125 C 3.628906 -16.3125 2.984375 -16.46875 2.453125 -16.78125 C 1.929688 -17.09375 1.671875 -17.6875 1.671875 -18.5625 C 1.671875 -19.476562 1.929688 -20.085938 2.453125 -20.390625 C 2.984375 -20.703125 3.628906 -20.859375 4.390625 -20.859375 Z M 4.390625 -20.859375 "/></g></g></g><g fill="#cf1020" fill-opacity="1"><g transform="translate(30.529876, 25.040324)"><g><path d="M 10.75 -15.125 C 11.03125 -15.125 11.320312 -15.101562 11.625 -15.0625 C 11.925781 -15.03125 12.15625 -15 12.3125 -14.96875 L 11.84375 -10.125 C 11.675781 -10.175781 11.460938 -10.210938 11.203125 -10.234375 C 10.941406 -10.265625 10.578125 -10.28125 10.109375 -10.28125 C 9.785156 -10.28125 9.4375 -10.25 9.0625 -10.1875 C 8.695312 -10.132812 8.347656 -10.007812 8.015625 -9.8125 C 7.691406 -9.613281 7.425781 -9.3125 7.21875 -8.90625 C 7.007812 -8.507812 6.90625 -7.976562 6.90625 -7.3125 L 6.90625 0 L 1.765625 0 L 1.765625 -14.875 L 5.59375 -14.875 L 6.390625 -12.5 L 6.640625 -12.5 C 6.910156 -12.988281 7.253906 -13.429688 7.671875 -13.828125 C 8.097656 -14.222656 8.578125 -14.535156 9.109375 -14.765625 C 9.640625 -15.003906 10.1875 -15.125 10.75 -15.125 Z M 10.75 -15.125 "/></g></g></g><g fill="#cf1020" fill-opacity="1"><g transform="translate(43.136521, 25.040324)"><g><path d="M 9.03125 -15.125 C 10.90625 -15.125 12.375 -14.65625 13.4375 -13.71875 C 14.5 -12.789062 15.03125 -11.46875 15.03125 -9.75 L 15.03125 0 L 11.46875 0 L 10.484375 -1.96875 L 10.375 -1.96875 C 9.957031 -1.445312 9.523438 -1.019531 9.078125 -0.6875 C 8.640625 -0.363281 8.132812 -0.125 7.5625 0.03125 C 7 0.1875 6.304688 0.265625 5.484375 0.265625 C 4.628906 0.265625 3.859375 0.09375 3.171875 -0.25 C 2.492188 -0.601562 1.957031 -1.132812 1.5625 -1.84375 C 1.164062 -2.550781 0.96875 -3.453125 0.96875 -4.546875 C 0.96875 -6.128906 1.519531 -7.304688 2.625 -8.078125 C 3.726562 -8.847656 5.328125 -9.28125 7.421875 -9.375 L 9.890625 -9.46875 L 9.890625 -9.671875 C 9.890625 -10.335938 9.722656 -10.8125 9.390625 -11.09375 C 9.066406 -11.375 8.628906 -11.515625 8.078125 -11.515625 C 7.492188 -11.515625 6.84375 -11.410156 6.125 -11.203125 C 5.40625 -10.992188 4.679688 -10.726562 3.953125 -10.40625 L 2.46875 -13.796875 C 3.320312 -14.234375 4.289062 -14.5625 5.375 -14.78125 C 6.457031 -15.007812 7.675781 -15.125 9.03125 -15.125 Z M 9.921875 -6.640625 L 8.734375 -6.59375 C 7.796875 -6.550781 7.132812 -6.382812 6.75 -6.09375 C 6.375 -5.800781 6.1875 -5.382812 6.1875 -4.84375 C 6.1875 -4.332031 6.320312 -3.957031 6.59375 -3.71875 C 6.863281 -3.476562 7.21875 -3.359375 7.65625 -3.359375 C 8.28125 -3.359375 8.8125 -3.554688 9.25 -3.953125 C 9.695312 -4.347656 9.921875 -4.859375 9.921875 -5.484375 Z M 9.921875 -6.640625 "/></g></g></g><g fill="#cf1020" fill-opacity="1"><g transform="translate(59.87541, 25.040324)"><g><path d="M 6.90625 0 L 1.765625 0 L 1.765625 -20.421875 L 6.90625 -20.421875 Z M 6.90625 0 "/></g></g></g><g clip-path="url(#289252b0aa)"><g clip-path="url(#6ed5fe6930)"><g clip-path="url(#f2d9cbba1e)"><g clip-path="url(#39f31f08f4)"><path fill="#000000" d="M 85.019531 28.125 L 81.324219 21.144531 C 79.566406 21.652344 77.644531 21.675781 75.757812 21.097656 C 70.613281 19.515625 67.734375 14.066406 69.316406 8.921875 C 70.894531 3.785156 76.335938 0.894531 81.480469 2.476562 C 86.617188 4.054688 89.503906 9.507812 87.925781 14.640625 C 87.371094 16.4375 86.351562 17.957031 85.042969 19.105469 L 88.765625 26.132812 C 88.964844 26.496094 88.515625 27.113281 87.769531 27.507812 L 86.722656 28.0625 C 85.976562 28.457031 85.210938 28.484375 85.019531 28.125 Z M 84.832031 13.691406 C 85.886719 10.257812 83.960938 6.625 80.527344 5.570312 C 77.09375 4.515625 73.453125 6.4375 72.398438 9.871094 C 71.34375 13.304688 73.273438 16.949219 76.707031 18.003906 C 80.140625 19.058594 83.777344 17.125 84.832031 13.691406 Z M 84.832031 13.691406 " fill-opacity="1" fill-rule="nonzero"/></g></g></g></g><g clip-path="url(#fcc97c754c)"><path fill="#9f0000" d="M 80.960938 16.132812 C 80.117188 16.949219 79.113281 17.355469 77.953125 17.351562 C 77.183594 17.363281 76.476562 17.148438 75.832031 16.710938 C 75.144531 16.226562 74.644531 15.585938 74.328125 14.789062 C 73.9375 13.722656 73.867188 12.632812 74.121094 11.523438 C 74.324219 10.667969 74.695312 9.898438 75.242188 9.222656 C 75.359375 9.082031 75.5 9.042969 75.667969 9.109375 C 75.835938 9.175781 75.917969 9.296875 75.921875 9.480469 C 75.921875 9.503906 75.957031 11.738281 77.082031 11.738281 C 77.320312 11.746094 77.515625 11.660156 77.671875 11.472656 C 77.925781 11.132812 77.953125 10.457031 77.734375 9.578125 C 77.195312 7.335938 78.296875 6.078125 78.34375 6.027344 C 78.453125 5.90625 78.585938 5.867188 78.738281 5.914062 C 78.894531 5.960938 78.984375 6.070312 79.007812 6.234375 C 79.164062 7.464844 79.703125 8.484375 80.625 9.285156 C 80.730469 9.390625 80.832031 9.492188 80.929688 9.601562 C 81.464844 10.128906 81.847656 10.753906 82.085938 11.476562 C 82.210938 11.878906 82.28125 12.292969 82.296875 12.71875 C 82.3125 13.140625 82.269531 13.558594 82.167969 13.96875 C 82.070312 14.382812 81.917969 14.769531 81.710938 15.136719 C 81.507812 15.503906 81.257812 15.835938 80.960938 16.132812 Z M 80.960938 16.132812 " fill-opacity="1" fill-rule="nonzero"/></g><g clip-path="url(#92bf649377)"><path fill="#cf1020" d="M 80.929688 9.601562 C 80.726562 10.34375 80.410156 11.03125 79.988281 11.667969 C 79.570312 12.304688 79.058594 12.859375 78.464844 13.324219 C 77.871094 13.792969 77.21875 14.152344 76.511719 14.402344 C 75.804688 14.652344 75.078125 14.78125 74.328125 14.789062 C 73.9375 13.722656 73.867188 12.632812 74.121094 11.523438 C 74.324219 10.667969 74.695312 9.898438 75.242188 9.222656 C 75.359375 9.082031 75.5 9.042969 75.667969 9.109375 C 75.835938 9.175781 75.917969 9.296875 75.921875 9.480469 C 75.921875 9.503906 75.957031 11.738281 77.082031 11.738281 C 77.320312 11.746094 77.515625 11.660156 77.671875 11.472656 C 77.925781 11.132812 77.953125 10.457031 77.734375 9.578125 C 77.195312 7.335938 78.296875 6.078125 78.34375 6.027344 C 78.453125 5.90625 78.585938 5.867188 78.738281 5.914062 C 78.894531 5.960938 78.984375 6.070312 79.007812 6.234375 C 79.164062 7.464844 79.703125 8.484375 80.625 9.285156 C 80.730469 9.390625 80.832031 9.492188 80.929688 9.601562 Z M 80.929688 9.601562 " fill-opacity="1" fill-rule="nonzero"/></g><g fill="#d9d9d9" fill-opacity="0.4"><g transform="translate(90.389189, 21.169287)"><g><path d="M 15.667969 -6.488281 C 15.667969 -10.894531 13.21875 -13.34375 10.527344 -13.34375 C 8.078125 -13.34375 7.101562 -11.507812 7.101562 -11.507812 C 7.101562 -11.507812 7.101562 -11.507812 6.609375 -12.976562 L 1.222656 -12.976562 L 1.222656 6.121094 L 7.101562 6.121094 L 7.101562 -1.46875 C 7.101562 -1.46875 8.078125 0.367188 10.527344 0.367188 C 13.21875 0.367188 15.667969 -2.082031 15.667969 -6.488281 Z M 9.546875 -6.488281 C 9.546875 -5.261719 8.9375 -4.652344 8.203125 -4.652344 C 7.46875 -4.652344 6.855469 -5.261719 6.855469 -6.488281 C 6.855469 -7.710938 7.46875 -8.324219 8.203125 -8.324219 C 8.9375 -8.324219 9.546875 -7.710938 9.546875 -6.488281 Z M 9.546875 -6.488281 "/></g></g></g><g fill="#d9d9d9" fill-opacity="0.4"><g transform="translate(106.786328, 21.169287)"><g><path d="M 15.667969 -6.488281 C 15.667969 -10.894531 13.21875 -13.34375 10.527344 -13.34375 C 8.078125 -13.34375 7.101562 -11.507812 7.101562 -11.507812 C 7.101562 -11.507812 7.101562 -11.507812 6.609375 -12.976562 L 1.222656 -12.976562 L 1.222656 6.121094 L 7.101562 6.121094 L 7.101562 -1.46875 C 7.101562 -1.46875 8.078125 0.367188 10.527344 0.367188 C 13.21875 0.367188 15.667969 -2.082031 15.667969 -6.488281 Z M 9.546875 -6.488281 C 9.546875 -5.261719 8.9375 -4.652344 8.203125 -4.652344 C 7.46875 -4.652344 6.855469 -5.261719 6.855469 -6.488281 C 6.855469 -7.710938 7.46875 -8.324219 8.203125 -8.324219 C 8.9375 -8.324219 9.546875 -7.710938 9.546875 -6.488281 Z M 9.546875 -6.488281 "/></g></g></g><g fill="#000000" fill-opacity="1"><g transform="translate(90.389189, 20.924421)"><g><path d="M 15.667969 -6.488281 C 15.667969 -10.894531 13.21875 -13.34375 10.527344 -13.34375 C 8.078125 -13.34375 7.101562 -11.507812 7.101562 -11.507812 C 7.101562 -11.507812 7.101562 -11.507812 6.609375 -12.976562 L 1.222656 -12.976562 L 1.222656 6.121094 L 7.101562 6.121094 L 7.101562 -1.46875 C 7.101562 -1.46875 8.078125 0.367188 10.527344 0.367188 C 13.21875 0.367188 15.667969 -2.082031 15.667969 -6.488281 Z M 9.546875 -6.488281 C 9.546875 -5.261719 8.9375 -4.652344 8.203125 -4.652344 C 7.46875 -4.652344 6.855469 -5.261719 6.855469 -6.488281 C 6.855469 -7.710938 7.46875 -8.324219 8.203125 -8.324219 C 8.9375 -8.324219 9.546875 -7.710938 9.546875 -6.488281 Z M 9.546875 -6.488281 "/></g></g></g><g fill="#000000" fill-opacity="1"><g transform="translate(106.786328, 20.924421)"><g><path d="M 15.667969 -6.488281 C 15.667969 -10.894531 13.21875 -13.34375 10.527344 -13.34375 C 8.078125 -13.34375 7.101562 -11.507812 7.101562 -11.507812 C 7.101562 -11.507812 7.101562 -11.507812 6.609375 -12.976562 L 1.222656 -12.976562 L 1.222656 6.121094 L 7.101562 6.121094 L 7.101562 -1.46875 C 7.101562 -1.46875 8.078125 0.367188 10.527344 0.367188 C 13.21875 0.367188 15.667969 -2.082031 15.667969 -6.488281 Z M 9.546875 -6.488281 C 9.546875 -5.261719 8.9375 -4.652344 8.203125 -4.652344 C 7.46875 -4.652344 6.855469 -5.261719 6.855469 -6.488281 C 6.855469 -7.710938 7.46875 -8.324219 8.203125 -8.324219 C 8.9375 -8.324219 9.546875 -7.710938 9.546875 -6.488281 Z M 9.546875 -6.488281 "/></g></g></g><g fill="#d9d9d9" fill-opacity="0.4"><g transform="translate(114.339341, 27.621067)"><g><path d="M 0.328125 -0.640625 C 0.328125 -0.910156 0.40625 -1.097656 0.5625 -1.203125 C 0.726562 -1.316406 0.921875 -1.375 1.140625 -1.375 C 1.347656 -1.375 1.53125 -1.316406 1.6875 -1.203125 C 1.84375 -1.097656 1.921875 -0.910156 1.921875 -0.640625 C 1.921875 -0.378906 1.84375 -0.191406 1.6875 -0.078125 C 1.53125 0.0351562 1.347656 0.09375 1.140625 0.09375 C 0.921875 0.09375 0.726562 0.0351562 0.5625 -0.078125 C 0.40625 -0.191406 0.328125 -0.378906 0.328125 -0.640625 Z M 0.328125 -0.640625 "/></g></g><g transform="translate(116.600473, 27.621067)"><g><path d="M 5.921875 0 L 3.9375 0 L 1.90625 -3.9375 L 1.875 -3.9375 C 1.882812 -3.8125 1.894531 -3.664062 1.90625 -3.5 C 1.914062 -3.332031 1.921875 -3.160156 1.921875 -2.984375 C 1.929688 -2.816406 1.9375 -2.660156 1.9375 -2.515625 L 1.9375 0 L 0.609375 0 L 0.609375 -5.59375 L 2.578125 -5.59375 L 4.609375 -1.703125 L 4.625 -1.703125 C 4.625 -1.828125 4.617188 -1.96875 4.609375 -2.125 C 4.597656 -2.289062 4.585938 -2.457031 4.578125 -2.625 C 4.578125 -2.789062 4.578125 -2.9375 4.578125 -3.0625 L 4.578125 -5.59375 L 5.921875 -5.59375 Z M 5.921875 0 "/></g></g><g transform="translate(123.124142, 27.621067)"><g><path d="M 3.921875 0 L 0.609375 0 L 0.609375 -5.59375 L 3.921875 -5.59375 L 3.921875 -4.375 L 2.109375 -4.375 L 2.109375 -3.5 L 3.78125 -3.5 L 3.78125 -2.28125 L 2.109375 -2.28125 L 2.109375 -1.234375 L 3.921875 -1.234375 Z M 3.921875 0 "/></g></g><g transform="translate(127.417236, 27.621067)"><g><path d="M 3.0625 0 L 1.5625 0 L 1.5625 -4.359375 L 0.1875 -4.359375 L 0.1875 -5.59375 L 4.4375 -5.59375 L 4.4375 -4.359375 L 3.0625 -4.359375 Z M 3.0625 0 "/></g></g></g><g fill="#cf1020" fill-opacity="1"><g transform="translate(114.339341, 27.542845)"><g><path d="M 0.328125 -0.640625 C 0.328125 -0.910156 0.40625 -1.097656 0.5625 -1.203125 C 0.726562 -1.316406 0.921875 -1.375 1.140625 -1.375 C 1.347656 -1.375 1.53125 -1.316406 1.6875 -1.203125 C 1.84375 -1.097656 1.921875 -0.910156 1.921875 -0.640625 C 1.921875 -0.378906 1.84375 -0.191406 1.6875 -0.078125 C 1.53125 0.0351562 1.347656 0.09375 1.140625 0.09375 C 0.921875 0.09375 0.726562 0.0351562 0.5625 -0.078125 C 0.40625 -0.191406 0.328125 -0.378906 0.328125 -0.640625 Z M 0.328125 -0.640625 "/></g></g><g transform="translate(116.600473, 27.542845)"><g><path d="M 5.921875 0 L 3.9375 0 L 1.90625 -3.9375 L 1.875 -3.9375 C 1.882812 -3.8125 1.894531 -3.664062 1.90625 -3.5 C 1.914062 -3.332031 1.921875 -3.160156 1.921875 -2.984375 C 1.929688 -2.816406 1.9375 -2.660156 1.9375 -2.515625 L 1.9375 0 L 0.609375 0 L 0.609375 -5.59375 L 2.578125 -5.59375 L 4.609375 -1.703125 L 4.625 -1.703125 C 4.625 -1.828125 4.617188 -1.96875 4.609375 -2.125 C 4.597656 -2.289062 4.585938 -2.457031 4.578125 -2.625 C 4.578125 -2.789062 4.578125 -2.9375 4.578125 -3.0625 L 4.578125 -5.59375 L 5.921875 -5.59375 Z M 5.921875 0 "/></g></g><g transform="translate(123.124142, 27.542845)"><g><path d="M 3.921875 0 L 0.609375 0 L 0.609375 -5.59375 L 3.921875 -5.59375 L 3.921875 -4.375 L 2.109375 -4.375 L 2.109375 -3.5 L 3.78125 -3.5 L 3.78125 -2.28125 L 2.109375 -2.28125 L 2.109375 -1.234375 L 3.921875 -1.234375 Z M 3.921875 0 "/></g></g><g transform="translate(127.417236, 27.542845)"><g><path d="M 3.0625 0 L 1.5625 0 L 1.5625 -4.359375 L 0.1875 -4.359375 L 0.1875 -5.59375 L 4.4375 -5.59375 L 4.4375 -4.359375 L 3.0625 -4.359375 Z M 3.0625 0 "/></g></g></g></svg>